<svg xmlns="http://www.w3.org/2000/svg" xmlns:xlink="http://www.w3.org/1999/xlink" width="50" zoomAndPan="magnify" viewBox="0 0 37.5 37.499999" height="50" preserveAspectRatio="xMidYMid meet" version="1.0"><defs><clipPath id="87ebb5f775"><path d="M 2.074219 2 L 35.378906 2 L 35.378906 35.226562 L 2.074219 35.226562 Z M 2.074219 2 " clip-rule="nonzero"/></clipPath></defs><g clip-path="url(#87ebb5f775)"><path fill="#9a2018" d="M 2.074219 18.722656 C 2.074219 19.261719 2.097656 19.800781 2.152344 20.339844 C 2.203125 20.878906 2.285156 21.414062 2.390625 21.941406 C 2.496094 22.472656 2.625 22.996094 2.78125 23.511719 C 2.941406 24.03125 3.121094 24.539062 3.328125 25.039062 C 3.535156 25.539062 3.765625 26.027344 4.019531 26.503906 C 4.277344 26.980469 4.554688 27.441406 4.855469 27.890625 C 5.152344 28.339844 5.476562 28.773438 5.816406 29.191406 C 6.160156 29.609375 6.523438 30.011719 6.90625 30.390625 C 7.289062 30.773438 7.6875 31.136719 8.105469 31.480469 C 8.523438 31.824219 8.957031 32.144531 9.40625 32.445312 C 9.855469 32.746094 10.320312 33.023438 10.796875 33.277344 C 11.273438 33.53125 11.761719 33.761719 12.257812 33.96875 C 12.757812 34.175781 13.265625 34.359375 13.785156 34.515625 C 14.300781 34.671875 14.824219 34.804688 15.355469 34.910156 C 15.886719 35.015625 16.417969 35.09375 16.957031 35.144531 C 17.496094 35.199219 18.035156 35.226562 18.574219 35.226562 C 19.117188 35.226562 19.65625 35.199219 20.191406 35.144531 C 20.730469 35.09375 21.265625 35.015625 21.792969 34.910156 C 22.324219 34.804688 22.847656 34.671875 23.367188 34.515625 C 23.882812 34.359375 24.390625 34.175781 24.890625 33.96875 C 25.390625 33.761719 25.878906 33.53125 26.355469 33.277344 C 26.832031 33.023438 27.292969 32.746094 27.742188 32.445312 C 28.191406 32.144531 28.625 31.824219 29.042969 31.480469 C 29.460938 31.136719 29.863281 30.773438 30.242188 30.390625 C 30.625 30.011719 30.988281 29.609375 31.332031 29.191406 C 31.675781 28.773438 31.996094 28.339844 32.296875 27.890625 C 32.597656 27.441406 32.875 26.980469 33.128906 26.503906 C 33.382812 26.027344 33.613281 25.539062 33.820312 25.039062 C 34.027344 24.539062 34.210938 24.03125 34.367188 23.511719 C 34.523438 22.996094 34.65625 22.472656 34.761719 21.941406 C 34.867188 21.414062 34.945312 20.878906 35 20.339844 C 35.050781 19.800781 35.078125 19.261719 35.078125 18.722656 C 35.078125 18.183594 35.050781 17.644531 35 17.105469 C 34.945312 16.566406 34.867188 16.035156 34.761719 15.503906 C 34.65625 14.972656 34.523438 14.449219 34.367188 13.933594 C 34.210938 13.414062 34.027344 12.90625 33.820312 12.40625 C 33.613281 11.910156 33.382812 11.421875 33.128906 10.945312 C 32.875 10.46875 32.597656 10.003906 32.296875 9.554688 C 31.996094 9.105469 31.675781 8.671875 31.332031 8.253906 C 30.988281 7.835938 30.625 7.4375 30.242188 7.054688 C 29.863281 6.671875 29.460938 6.308594 29.042969 5.964844 C 28.625 5.625 28.191406 5.300781 27.742188 5 C 27.292969 4.703125 26.832031 4.421875 26.355469 4.167969 C 25.878906 3.914062 25.390625 3.683594 24.890625 3.476562 C 24.390625 3.269531 23.882812 3.085938 23.367188 2.929688 C 22.847656 2.773438 22.324219 2.644531 21.792969 2.539062 C 21.265625 2.433594 20.730469 2.351562 20.191406 2.300781 C 19.65625 2.246094 19.117188 2.21875 18.574219 2.21875 C 18.035156 2.222656 17.496094 2.246094 16.957031 2.300781 C 16.421875 2.355469 15.886719 2.433594 15.355469 2.539062 C 14.828125 2.644531 14.304688 2.777344 13.785156 2.933594 C 13.269531 3.089844 12.761719 3.273438 12.261719 3.480469 C 11.761719 3.6875 11.273438 3.917969 10.796875 4.171875 C 10.324219 4.429688 9.859375 4.707031 9.410156 5.007812 C 8.960938 5.308594 8.527344 5.628906 8.109375 5.972656 C 7.691406 6.3125 7.292969 6.675781 6.910156 7.058594 C 6.527344 7.441406 6.164062 7.839844 5.824219 8.257812 C 5.480469 8.675781 5.160156 9.109375 4.859375 9.558594 C 4.558594 10.007812 4.28125 10.46875 4.027344 10.945312 C 3.769531 11.421875 3.539062 11.910156 3.332031 12.410156 C 3.125 12.910156 2.945312 13.417969 2.785156 13.933594 C 2.628906 14.453125 2.496094 14.976562 2.390625 15.503906 C 2.285156 16.035156 2.207031 16.566406 2.152344 17.105469 C 2.101562 17.644531 2.074219 18.183594 2.074219 18.722656 Z M 19.125 12.65625 L 26.984375 20.515625 C 27.144531 20.667969 27.222656 20.859375 27.21875 21.082031 C 27.226562 21.300781 27.152344 21.488281 27 21.644531 C 26.84375 21.796875 26.65625 21.871094 26.441406 21.871094 C 26.226562 21.871094 26.039062 21.796875 25.882812 21.644531 L 18.574219 14.324219 L 11.265625 21.644531 C 11.109375 21.796875 10.925781 21.871094 10.707031 21.871094 C 10.492188 21.871094 10.304688 21.796875 10.152344 21.644531 C 9.996094 21.492188 9.917969 21.308594 9.917969 21.089844 C 9.917969 20.871094 9.996094 20.683594 10.152344 20.53125 L 18.007812 12.671875 C 18.167969 12.527344 18.359375 12.453125 18.574219 12.453125 C 18.785156 12.445312 18.96875 12.515625 19.125 12.65625 Z M 19.125 12.65625 " fill-opacity="1" fill-rule="nonzero"/></g></svg>