<svg xmlns="http://www.w3.org/2000/svg" xmlns:xlink="http://www.w3.org/1999/xlink" width="50" zoomAndPan="magnify" viewBox="0 0 37.5 37.499999" height="50" preserveAspectRatio="xMidYMid meet" version="1.0"><path fill="#d82323" d="M 18.589844 15.351562 C 18.589844 15.832031 18.542969 16.304688 18.449219 16.777344 C 18.355469 17.246094 18.214844 17.703125 18.03125 18.148438 C 17.84375 18.589844 17.617188 19.011719 17.351562 19.410156 C 17.082031 19.808594 16.777344 20.179688 16.4375 20.515625 C 16.097656 20.855469 15.726562 21.160156 15.324219 21.425781 C 14.921875 21.691406 14.5 21.917969 14.054688 22.101562 C 13.609375 22.285156 13.148438 22.421875 12.675781 22.515625 C 12.203125 22.609375 11.726562 22.65625 11.242188 22.65625 C 10.761719 22.65625 10.285156 22.609375 9.8125 22.515625 C 9.335938 22.421875 8.878906 22.285156 8.433594 22.101562 C 7.988281 21.917969 7.5625 21.691406 7.164062 21.425781 C 6.761719 21.160156 6.390625 20.855469 6.050781 20.515625 C 5.707031 20.179688 5.402344 19.808594 5.136719 19.410156 C 4.867188 19.011719 4.640625 18.589844 4.457031 18.148438 C 4.273438 17.703125 4.132812 17.246094 4.039062 16.777344 C 3.945312 16.304688 3.898438 15.832031 3.898438 15.351562 C 3.898438 14.871094 3.945312 14.398438 4.039062 13.925781 C 4.132812 13.457031 4.273438 13 4.457031 12.554688 C 4.640625 12.113281 4.867188 11.691406 5.136719 11.292969 C 5.402344 10.894531 5.707031 10.523438 6.050781 10.1875 C 6.390625 9.847656 6.761719 9.542969 7.164062 9.277344 C 7.5625 9.011719 7.988281 8.785156 8.433594 8.601562 C 8.878906 8.417969 9.335938 8.28125 9.8125 8.1875 C 10.285156 8.09375 10.761719 8.046875 11.242188 8.046875 C 11.726562 8.046875 12.203125 8.09375 12.675781 8.1875 C 13.148438 8.28125 13.609375 8.417969 14.054688 8.601562 C 14.5 8.785156 14.921875 9.011719 15.324219 9.277344 C 15.726562 9.542969 16.097656 9.847656 16.4375 10.1875 C 16.777344 10.523438 17.082031 10.894531 17.351562 11.292969 C 17.617188 11.691406 17.84375 12.113281 18.03125 12.554688 C 18.214844 13 18.355469 13.457031 18.449219 13.925781 C 18.542969 14.398438 18.589844 14.871094 18.589844 15.351562 Z M 18.589844 15.351562 " fill-opacity="1" fill-rule="nonzero"/><path fill="#b50202" d="M 33.015625 12.527344 C 33.015625 13.007812 32.96875 13.484375 32.875 13.953125 C 32.78125 14.421875 32.640625 14.878906 32.457031 15.324219 C 32.273438 15.765625 32.046875 16.1875 31.777344 16.585938 C 31.511719 16.984375 31.207031 17.355469 30.863281 17.691406 C 30.523438 18.03125 30.152344 18.335938 29.75 18.601562 C 29.351562 18.867188 28.925781 19.09375 28.480469 19.277344 C 28.035156 19.460938 27.578125 19.597656 27.105469 19.691406 C 26.632812 19.785156 26.152344 19.832031 25.671875 19.832031 C 25.1875 19.832031 24.710938 19.785156 24.238281 19.691406 C 23.765625 19.597656 23.304688 19.460938 22.859375 19.277344 C 22.414062 19.09375 21.992188 18.867188 21.589844 18.601562 C 21.1875 18.335938 20.816406 18.03125 20.476562 17.691406 C 20.136719 17.355469 19.832031 16.984375 19.5625 16.585938 C 19.296875 16.1875 19.070312 15.765625 18.882812 15.324219 C 18.699219 14.878906 18.5625 14.421875 18.464844 13.953125 C 18.371094 13.484375 18.324219 13.007812 18.324219 12.527344 C 18.324219 12.046875 18.371094 11.574219 18.464844 11.101562 C 18.5625 10.632812 18.699219 10.175781 18.882812 9.730469 C 19.070312 9.289062 19.296875 8.867188 19.5625 8.46875 C 19.832031 8.070312 20.136719 7.703125 20.476562 7.363281 C 20.816406 7.023438 21.1875 6.71875 21.589844 6.453125 C 21.992188 6.1875 22.414062 5.960938 22.859375 5.777344 C 23.304688 5.59375 23.765625 5.457031 24.238281 5.363281 C 24.710938 5.269531 25.1875 5.222656 25.671875 5.222656 C 26.152344 5.222656 26.632812 5.269531 27.105469 5.363281 C 27.578125 5.457031 28.035156 5.59375 28.480469 5.777344 C 28.925781 5.960938 29.351562 6.1875 29.75 6.453125 C 30.152344 6.71875 30.523438 7.023438 30.863281 7.363281 C 31.207031 7.703125 31.511719 8.070312 31.777344 8.46875 C 32.046875 8.867188 32.273438 9.289062 32.457031 9.730469 C 32.640625 10.175781 32.78125 10.632812 32.875 11.101562 C 32.96875 11.574219 33.015625 12.046875 33.015625 12.527344 Z M 33.015625 12.527344 " fill-opacity="1" fill-rule="nonzero"/><path fill="#d82323" d="M 6.160156 20.625 L 18.585938 31.402344 L 18.585938 24.800781 L 12.371094 18.640625 Z M 6.160156 20.625 " fill-opacity="1" fill-rule="nonzero"/><path fill="#b50202" d="M 18.460938 24.800781 L 26.378906 18.640625 L 31.03125 17.523438 L 18.460938 31.402344 " fill-opacity="1" fill-rule="nonzero"/></svg>