<svg xmlns="http://www.w3.org/2000/svg" xmlns:xlink="http://www.w3.org/1999/xlink" width="412" zoomAndPan="magnify" viewBox="0 0 309 149.999998" height="200" preserveAspectRatio="xMidYMid meet" version="1.0"><defs><filter x="0%" y="0%" width="100%" height="100%" id="1ac42b53ca"><feColorMatrix values="0 0 0 0 1 0 0 0 0 1 0 0 0 0 1 0 0 0 1 0" color-interpolation-filters="sRGB"/></filter><mask id="9e7c95f350"><g filter="url(#1ac42b53ca)"><rect x="-30.9" width="370.8" fill="#000000" y="-15" height="179.999997" fill-opacity="0.09"/></g></mask><clipPath id="1c9121e131"><rect x="0" width="154" y="0" height="146"/></clipPath></defs><rect x="-30.9" width="370.8" fill="#ffffff" y="-15" height="179.999997" fill-opacity="1"/><rect x="-30.9" width="370.8" fill="#efefef" y="-15" height="179.999997" fill-opacity="1"/><g mask="url(#9e7c95f350)"><g transform="matrix(1, 0, 0, 1, 78, 2)"><g clip-path="url(#1c9121e131)"><path fill="#d82323" d="M 76.722656 61.367188 C 76.722656 62.359375 76.675781 63.347656 76.578125 64.332031 C 76.480469 65.316406 76.335938 66.296875 76.140625 67.269531 C 75.949219 68.238281 75.707031 69.199219 75.421875 70.144531 C 75.132812 71.09375 74.800781 72.027344 74.417969 72.941406 C 74.039062 73.855469 73.617188 74.75 73.148438 75.625 C 72.683594 76.496094 72.171875 77.34375 71.621094 78.167969 C 71.070312 78.992188 70.480469 79.785156 69.851562 80.550781 C 69.222656 81.316406 68.558594 82.050781 67.855469 82.75 C 67.15625 83.453125 66.421875 84.117188 65.65625 84.742188 C 64.890625 85.371094 64.09375 85.960938 63.269531 86.511719 C 62.445312 87.0625 61.597656 87.570312 60.722656 88.039062 C 59.847656 88.503906 58.953125 88.925781 58.035156 89.304688 C 57.121094 89.683594 56.1875 90.019531 55.238281 90.304688 C 54.289062 90.59375 53.328125 90.832031 52.359375 91.027344 C 51.386719 91.21875 50.40625 91.367188 49.417969 91.460938 C 48.433594 91.558594 47.441406 91.609375 46.453125 91.609375 C 45.460938 91.609375 44.472656 91.558594 43.484375 91.460938 C 42.496094 91.367188 41.519531 91.21875 40.546875 91.027344 C 39.574219 90.832031 38.613281 90.59375 37.664062 90.304688 C 36.714844 90.019531 35.78125 89.683594 34.867188 89.304688 C 33.949219 88.925781 33.054688 88.503906 32.179688 88.039062 C 31.308594 87.570312 30.457031 87.0625 29.632812 86.511719 C 28.808594 85.960938 28.011719 85.371094 27.246094 84.742188 C 26.480469 84.117188 25.746094 83.453125 25.046875 82.75 C 24.34375 82.050781 23.679688 81.316406 23.050781 80.550781 C 22.421875 79.785156 21.832031 78.992188 21.28125 78.167969 C 20.730469 77.34375 20.222656 76.496094 19.753906 75.625 C 19.285156 74.75 18.863281 73.855469 18.484375 72.941406 C 18.105469 72.027344 17.769531 71.09375 17.484375 70.144531 C 17.195312 69.199219 16.953125 68.238281 16.761719 67.269531 C 16.566406 66.296875 16.421875 65.316406 16.324219 64.332031 C 16.226562 63.347656 16.179688 62.359375 16.179688 61.367188 C 16.179688 60.378906 16.226562 59.390625 16.324219 58.402344 C 16.421875 57.417969 16.566406 56.441406 16.761719 55.46875 C 16.953125 54.496094 17.195312 53.539062 17.484375 52.589844 C 17.769531 51.640625 18.105469 50.710938 18.484375 49.796875 C 18.863281 48.878906 19.285156 47.988281 19.753906 47.113281 C 20.222656 46.238281 20.730469 45.390625 21.28125 44.566406 C 21.832031 43.746094 22.421875 42.949219 23.050781 42.183594 C 23.679688 41.417969 24.34375 40.683594 25.046875 39.984375 C 25.746094 39.285156 26.480469 38.621094 27.246094 37.992188 C 28.011719 37.363281 28.808594 36.773438 29.632812 36.222656 C 30.457031 35.675781 31.308594 35.164062 32.179688 34.699219 C 33.054688 34.230469 33.949219 33.808594 34.867188 33.429688 C 35.78125 33.050781 36.714844 32.71875 37.664062 32.429688 C 38.613281 32.144531 39.574219 31.902344 40.546875 31.710938 C 41.519531 31.515625 42.496094 31.371094 43.484375 31.273438 C 44.472656 31.175781 45.460938 31.128906 46.453125 31.128906 C 47.441406 31.128906 48.433594 31.175781 49.417969 31.273438 C 50.40625 31.371094 51.386719 31.515625 52.359375 31.710938 C 53.328125 31.902344 54.289062 32.144531 55.238281 32.429688 C 56.1875 32.71875 57.121094 33.050781 58.035156 33.429688 C 58.953125 33.808594 59.847656 34.230469 60.722656 34.699219 C 61.597656 35.164062 62.445312 35.675781 63.269531 36.222656 C 64.09375 36.773438 64.890625 37.363281 65.65625 37.992188 C 66.421875 38.621094 67.15625 39.285156 67.855469 39.984375 C 68.558594 40.683594 69.222656 41.417969 69.851562 42.183594 C 70.480469 42.949219 71.070312 43.746094 71.621094 44.566406 C 72.171875 45.390625 72.683594 46.238281 73.148438 47.113281 C 73.617188 47.988281 74.039062 48.878906 74.417969 49.796875 C 74.800781 50.710938 75.132812 51.640625 75.421875 52.589844 C 75.707031 53.539062 75.949219 54.496094 76.140625 55.46875 C 76.335938 56.441406 76.480469 57.417969 76.578125 58.402344 C 76.675781 59.390625 76.722656 60.378906 76.722656 61.367188 Z M 76.722656 61.367188 " fill-opacity="1" fill-rule="nonzero"/><path fill="#b50202" d="M 136.183594 49.679688 C 136.183594 50.671875 136.132812 51.65625 136.035156 52.644531 C 135.941406 53.628906 135.792969 54.609375 135.601562 55.578125 C 135.40625 56.550781 135.167969 57.511719 134.878906 58.457031 C 134.589844 59.40625 134.257812 60.335938 133.878906 61.253906 C 133.5 62.167969 133.074219 63.0625 132.609375 63.933594 C 132.140625 64.808594 131.632812 65.65625 131.082031 66.480469 C 130.53125 67.304688 129.941406 68.097656 129.3125 68.863281 C 128.683594 69.628906 128.015625 70.363281 127.316406 71.0625 C 126.613281 71.761719 125.882812 72.425781 125.113281 73.054688 C 124.347656 73.683594 123.554688 74.273438 122.730469 74.824219 C 121.90625 75.375 121.054688 75.882812 120.179688 76.347656 C 119.304688 76.816406 118.410156 77.238281 117.496094 77.617188 C 116.578125 77.996094 115.648438 78.332031 114.699219 78.617188 C 113.75 78.90625 112.789062 79.144531 111.816406 79.339844 C 110.84375 79.53125 109.863281 79.675781 108.878906 79.773438 C 107.890625 79.871094 106.902344 79.917969 105.910156 79.917969 C 104.917969 79.917969 103.929688 79.871094 102.941406 79.773438 C 101.957031 79.675781 100.976562 79.53125 100.003906 79.339844 C 99.03125 79.144531 98.070312 78.90625 97.121094 78.617188 C 96.175781 78.332031 95.242188 77.996094 94.324219 77.617188 C 93.410156 77.238281 92.515625 76.816406 91.640625 76.347656 C 90.765625 75.882812 89.917969 75.375 89.09375 74.824219 C 88.269531 74.273438 87.472656 73.683594 86.707031 73.054688 C 85.9375 72.425781 85.207031 71.761719 84.503906 71.0625 C 83.804688 70.363281 83.136719 69.628906 82.507812 68.863281 C 81.878906 68.097656 81.289062 67.304688 80.738281 66.480469 C 80.1875 65.65625 79.679688 64.808594 79.210938 63.933594 C 78.746094 63.0625 78.320312 62.167969 77.941406 61.253906 C 77.5625 60.335938 77.230469 59.40625 76.941406 58.457031 C 76.652344 57.511719 76.414062 56.550781 76.21875 55.578125 C 76.027344 54.609375 75.882812 53.628906 75.785156 52.644531 C 75.6875 51.65625 75.636719 50.671875 75.636719 49.679688 C 75.636719 48.6875 75.6875 47.703125 75.785156 46.714844 C 75.882812 45.730469 76.027344 44.75 76.21875 43.78125 C 76.414062 42.808594 76.652344 41.847656 76.941406 40.902344 C 77.230469 39.953125 77.5625 39.023438 77.941406 38.105469 C 78.320312 37.191406 78.746094 36.296875 79.210938 35.425781 C 79.679688 34.550781 80.1875 33.703125 80.738281 32.878906 C 81.289062 32.054688 81.878906 31.261719 82.507812 30.496094 C 83.136719 29.730469 83.804688 28.996094 84.503906 28.296875 C 85.207031 27.597656 85.9375 26.933594 86.707031 26.304688 C 87.472656 25.675781 88.269531 25.085938 89.09375 24.535156 C 89.917969 23.984375 90.765625 23.476562 91.640625 23.011719 C 92.515625 22.542969 93.410156 22.121094 94.324219 21.742188 C 95.242188 21.363281 96.175781 21.03125 97.121094 20.742188 C 98.070312 20.453125 99.03125 20.214844 100.003906 20.019531 C 100.976562 19.828125 101.957031 19.683594 102.941406 19.585938 C 103.929688 19.488281 104.917969 19.441406 105.910156 19.441406 C 106.902344 19.441406 107.890625 19.488281 108.878906 19.585938 C 109.863281 19.683594 110.84375 19.828125 111.816406 20.019531 C 112.789062 20.214844 113.75 20.453125 114.699219 20.742188 C 115.648438 21.03125 116.578125 21.363281 117.496094 21.742188 C 118.410156 22.121094 119.304688 22.542969 120.179688 23.011719 C 121.054688 23.476562 121.90625 23.984375 122.730469 24.535156 C 123.554688 25.085938 124.347656 25.675781 125.113281 26.304688 C 125.882812 26.933594 126.613281 27.597656 127.316406 28.296875 C 128.015625 28.996094 128.683594 29.730469 129.3125 30.496094 C 129.941406 31.261719 130.53125 32.054688 131.082031 32.878906 C 131.632812 33.703125 132.140625 34.550781 132.609375 35.425781 C 133.074219 36.296875 133.5 37.191406 133.878906 38.105469 C 134.257812 39.023438 134.589844 39.953125 134.878906 40.902344 C 135.167969 41.847656 135.40625 42.808594 135.601562 43.78125 C 135.792969 44.75 135.941406 45.730469 136.035156 46.714844 C 136.132812 47.703125 136.183594 48.6875 136.183594 49.679688 Z M 136.183594 49.679688 " fill-opacity="1" fill-rule="nonzero"/><path fill="#d82323" d="M 25.503906 83.191406 L 76.707031 127.8125 L 76.707031 100.492188 L 51.09375 74.984375 Z M 25.503906 83.191406 " fill-opacity="1" fill-rule="nonzero"/><path fill="#b50202" d="M 76.199219 100.492188 L 108.832031 74.984375 L 128 70.363281 L 76.199219 127.8125 " fill-opacity="1" fill-rule="nonzero"/></g></g></g></svg>