<svg xmlns="http://www.w3.org/2000/svg" xmlns:xlink="http://www.w3.org/1999/xlink" width="412" zoomAndPan="magnify" viewBox="0 0 309 749.999995" height="1000" preserveAspectRatio="xMidYMid meet" version="1.0"><defs><filter x="0%" y="0%" width="100%" height="100%" id="2e72c78317"><feColorMatrix values="0 0 0 0 1 0 0 0 0 1 0 0 0 0 1 0 0 0 1 0" color-interpolation-filters="sRGB"/></filter><mask id="e7372b033b"><g filter="url(#2e72c78317)"><rect x="-30.9" width="370.8" fill="#000000" y="-74.999999" height="899.999994" fill-opacity="0.05"/></g></mask><clipPath id="b88bdaad63"><rect x="0" width="309" y="0" height="313"/></clipPath></defs><rect x="-30.9" width="370.8" fill="#ffffff" y="-74.999999" height="899.999994" fill-opacity="1"/><rect x="-30.9" width="370.8" fill="#efefef" y="-74.999999" height="899.999994" fill-opacity="1"/><g mask="url(#e7372b033b)"><g transform="matrix(1, 0, 0, 1, 0, 197)"><g clip-path="url(#b88bdaad63)"><path fill="#d82323" d="M 155 132.53125 C 155 133.601562 154.972656 134.675781 154.917969 135.746094 C 154.867188 136.816406 154.789062 137.886719 154.683594 138.953125 C 154.578125 140.019531 154.445312 141.085938 154.289062 142.144531 C 154.132812 143.207031 153.949219 144.261719 153.742188 145.3125 C 153.53125 146.363281 153.296875 147.410156 153.035156 148.449219 C 152.777344 149.492188 152.488281 150.523438 152.179688 151.550781 C 151.867188 152.578125 151.53125 153.59375 151.171875 154.605469 C 150.808594 155.613281 150.425781 156.613281 150.015625 157.605469 C 149.605469 158.59375 149.171875 159.574219 148.710938 160.542969 C 148.253906 161.515625 147.773438 162.472656 147.265625 163.417969 C 146.761719 164.363281 146.234375 165.296875 145.683594 166.214844 C 145.132812 167.136719 144.558594 168.039062 143.964844 168.933594 C 143.367188 169.824219 142.75 170.699219 142.113281 171.5625 C 141.476562 172.421875 140.816406 173.269531 140.136719 174.097656 C 139.457031 174.925781 138.757812 175.738281 138.035156 176.53125 C 137.316406 177.328125 136.578125 178.101562 135.820312 178.859375 C 135.0625 179.617188 134.285156 180.359375 133.492188 181.078125 C 132.699219 181.796875 131.886719 182.5 131.058594 183.179688 C 130.230469 183.859375 129.386719 184.519531 128.527344 185.15625 C 127.664062 185.796875 126.789062 186.414062 125.898438 187.007812 C 125.007812 187.605469 124.101562 188.179688 123.183594 188.730469 C 122.265625 189.28125 121.332031 189.808594 120.386719 190.316406 C 119.441406 190.820312 118.484375 191.300781 117.515625 191.761719 C 116.546875 192.21875 115.566406 192.652344 114.578125 193.0625 C 113.589844 193.472656 112.589844 193.859375 111.578125 194.222656 C 110.570312 194.582031 109.554688 194.917969 108.527344 195.230469 C 107.503906 195.542969 106.46875 195.828125 105.429688 196.085938 C 104.390625 196.347656 103.347656 196.582031 102.292969 196.792969 C 101.242188 197 100.1875 197.183594 99.128906 197.34375 C 98.066406 197.5 97.003906 197.628906 95.9375 197.734375 C 94.871094 197.839844 93.804688 197.917969 92.734375 197.972656 C 91.664062 198.023438 90.59375 198.050781 89.519531 198.050781 C 88.449219 198.050781 87.378906 198.023438 86.308594 197.972656 C 85.238281 197.917969 84.167969 197.839844 83.101562 197.734375 C 82.035156 197.628906 80.972656 197.5 79.914062 197.34375 C 78.851562 197.183594 77.796875 197 76.746094 196.792969 C 75.695312 196.582031 74.652344 196.347656 73.609375 196.085938 C 72.570312 195.828125 71.539062 195.542969 70.511719 195.230469 C 69.488281 194.917969 68.472656 194.582031 67.460938 194.222656 C 66.453125 193.859375 65.453125 193.472656 64.464844 193.0625 C 63.472656 192.652344 62.492188 192.21875 61.527344 191.761719 C 60.558594 191.300781 59.601562 190.820312 58.65625 190.316406 C 57.710938 189.808594 56.777344 189.28125 55.859375 188.730469 C 54.9375 188.179688 54.035156 187.605469 53.144531 187.007812 C 52.253906 186.414062 51.375 185.796875 50.515625 185.15625 C 49.65625 184.519531 48.808594 183.859375 47.980469 183.179688 C 47.152344 182.5 46.34375 181.796875 45.546875 181.078125 C 44.753906 180.359375 43.980469 179.617188 43.222656 178.859375 C 42.464844 178.101562 41.722656 177.328125 41.003906 176.53125 C 40.285156 175.738281 39.585938 174.925781 38.90625 174.097656 C 38.226562 173.269531 37.566406 172.421875 36.929688 171.5625 C 36.289062 170.699219 35.671875 169.824219 35.078125 168.933594 C 34.484375 168.039062 33.910156 167.136719 33.359375 166.214844 C 32.808594 165.296875 32.28125 164.363281 31.773438 163.417969 C 31.269531 162.472656 30.789062 161.515625 30.328125 160.542969 C 29.871094 159.574219 29.4375 158.59375 29.027344 157.605469 C 28.617188 156.613281 28.230469 155.613281 27.871094 154.605469 C 27.507812 153.59375 27.171875 152.578125 26.863281 151.550781 C 26.550781 150.523438 26.265625 149.492188 26.003906 148.449219 C 25.746094 147.410156 25.511719 146.363281 25.300781 145.3125 C 25.09375 144.261719 24.910156 143.207031 24.75 142.144531 C 24.59375 141.085938 24.464844 140.019531 24.359375 138.953125 C 24.253906 137.886719 24.175781 136.816406 24.121094 135.746094 C 24.070312 134.675781 24.042969 133.601562 24.042969 132.53125 C 24.042969 131.457031 24.070312 130.386719 24.121094 129.316406 C 24.175781 128.246094 24.253906 127.175781 24.359375 126.109375 C 24.464844 125.042969 24.59375 123.976562 24.75 122.917969 C 24.910156 121.855469 25.09375 120.800781 25.300781 119.75 C 25.511719 118.695312 25.746094 117.652344 26.003906 116.609375 C 26.265625 115.570312 26.550781 114.539062 26.863281 113.511719 C 27.171875 112.484375 27.507812 111.46875 27.871094 110.457031 C 28.230469 109.449219 28.617188 108.449219 29.027344 107.457031 C 29.4375 106.46875 29.871094 105.488281 30.328125 104.519531 C 30.789062 103.546875 31.269531 102.589844 31.773438 101.644531 C 32.28125 100.699219 32.808594 99.765625 33.359375 98.847656 C 33.910156 97.925781 34.484375 97.023438 35.078125 96.128906 C 35.671875 95.238281 36.289062 94.363281 36.929688 93.5 C 37.566406 92.640625 38.226562 91.792969 38.90625 90.964844 C 39.585938 90.136719 40.285156 89.324219 41.003906 88.53125 C 41.722656 87.734375 42.464844 86.960938 43.222656 86.203125 C 43.980469 85.441406 44.753906 84.703125 45.546875 83.984375 C 46.34375 83.265625 47.152344 82.5625 47.980469 81.882812 C 48.808594 81.203125 49.65625 80.542969 50.515625 79.90625 C 51.375 79.265625 52.253906 78.648438 53.144531 78.054688 C 54.035156 77.457031 54.9375 76.882812 55.859375 76.332031 C 56.777344 75.78125 57.710938 75.253906 58.65625 74.746094 C 59.601562 74.242188 60.558594 73.761719 61.527344 73.300781 C 62.492188 72.84375 63.472656 72.410156 64.464844 72 C 65.453125 71.589844 66.453125 71.203125 67.460938 70.839844 C 68.472656 70.480469 69.488281 70.144531 70.511719 69.832031 C 71.539062 69.519531 72.570312 69.234375 73.609375 68.976562 C 74.652344 68.714844 75.695312 68.480469 76.746094 68.269531 C 77.796875 68.0625 78.851562 67.878906 79.914062 67.71875 C 80.972656 67.5625 82.035156 67.433594 83.101562 67.328125 C 84.167969 67.222656 85.238281 67.144531 86.308594 67.089844 C 87.378906 67.039062 88.449219 67.011719 89.519531 67.011719 C 90.59375 67.011719 91.664062 67.039062 92.734375 67.089844 C 93.804688 67.144531 94.871094 67.222656 95.9375 67.328125 C 97.003906 67.433594 98.066406 67.5625 99.128906 67.71875 C 100.1875 67.878906 101.242188 68.0625 102.292969 68.269531 C 103.347656 68.480469 104.390625 68.714844 105.429688 68.976562 C 106.46875 69.234375 107.503906 69.519531 108.527344 69.832031 C 109.554688 70.144531 110.570312 70.480469 111.578125 70.839844 C 112.589844 71.203125 113.589844 71.589844 114.578125 72 C 115.566406 72.410156 116.546875 72.84375 117.515625 73.300781 C 118.484375 73.761719 119.441406 74.242188 120.386719 74.746094 C 121.332031 75.253906 122.265625 75.78125 123.183594 76.332031 C 124.101562 76.882812 125.007812 77.457031 125.898438 78.054688 C 126.789062 78.648438 127.664062 79.265625 128.527344 79.90625 C 129.386719 80.542969 130.230469 81.203125 131.058594 81.882812 C 131.886719 82.5625 132.699219 83.265625 133.492188 83.984375 C 134.285156 84.703125 135.0625 85.441406 135.820312 86.203125 C 136.578125 86.960938 137.316406 87.734375 138.035156 88.53125 C 138.757812 89.324219 139.457031 90.136719 140.136719 90.964844 C 140.816406 91.792969 141.476562 92.640625 142.113281 93.5 C 142.75 94.363281 143.367188 95.238281 143.964844 96.128906 C 144.558594 97.023438 145.132812 97.925781 145.683594 98.847656 C 146.234375 99.765625 146.761719 100.699219 147.265625 101.644531 C 147.773438 102.589844 148.253906 103.546875 148.710938 104.519531 C 149.171875 105.488281 149.605469 106.46875 150.015625 107.457031 C 150.425781 108.449219 150.808594 109.449219 151.171875 110.457031 C 151.53125 111.46875 151.867188 112.484375 152.179688 113.511719 C 152.488281 114.539062 152.777344 115.570312 153.035156 116.609375 C 153.296875 117.652344 153.53125 118.695312 153.742188 119.75 C 153.949219 120.800781 154.132812 121.855469 154.289062 122.917969 C 154.445312 123.976562 154.578125 125.042969 154.683594 126.109375 C 154.789062 127.175781 154.867188 128.246094 154.917969 129.316406 C 154.972656 130.386719 155 131.457031 155 132.53125 Z M 155 132.53125 " fill-opacity="1" fill-rule="nonzero"/><path fill="#b50202" d="M 283.605469 107.207031 C 283.605469 108.277344 283.578125 109.351562 283.527344 110.421875 C 283.472656 111.492188 283.394531 112.5625 283.289062 113.628906 C 283.183594 114.695312 283.054688 115.757812 282.898438 116.820312 C 282.738281 117.882812 282.554688 118.9375 282.347656 119.988281 C 282.136719 121.039062 281.902344 122.085938 281.644531 123.125 C 281.382812 124.167969 281.097656 125.199219 280.785156 126.226562 C 280.476562 127.253906 280.140625 128.269531 279.777344 129.28125 C 279.417969 130.289062 279.03125 131.289062 278.621094 132.28125 C 278.210938 133.269531 277.777344 134.25 277.320312 135.21875 C 276.859375 136.1875 276.378906 137.148438 275.875 138.09375 C 275.367188 139.039062 274.839844 139.972656 274.289062 140.890625 C 273.738281 141.808594 273.164062 142.714844 272.570312 143.605469 C 271.976562 144.5 271.359375 145.375 270.71875 146.238281 C 270.082031 147.097656 269.421875 147.941406 268.742188 148.773438 C 268.0625 149.601562 267.363281 150.414062 266.644531 151.207031 C 265.925781 152 265.183594 152.777344 264.425781 153.535156 C 263.667969 154.292969 262.894531 155.035156 262.101562 155.753906 C 261.304688 156.472656 260.496094 157.175781 259.667969 157.855469 C 258.839844 158.535156 257.992188 159.195312 257.132812 159.832031 C 256.273438 160.472656 255.394531 161.089844 254.503906 161.683594 C 253.613281 162.28125 252.710938 162.855469 251.789062 163.40625 C 250.871094 163.957031 249.9375 164.484375 248.992188 164.988281 C 248.046875 165.496094 247.089844 165.976562 246.121094 166.4375 C 245.152344 166.894531 244.175781 167.328125 243.183594 167.738281 C 242.195312 168.148438 241.195312 168.535156 240.1875 168.894531 C 239.175781 169.257812 238.160156 169.59375 237.136719 169.90625 C 236.109375 170.214844 235.078125 170.503906 234.039062 170.761719 C 232.996094 171.023438 231.953125 171.257812 230.902344 171.46875 C 229.851562 171.675781 228.796875 171.859375 227.734375 172.015625 C 226.675781 172.175781 225.613281 172.304688 224.546875 172.410156 C 223.480469 172.515625 222.410156 172.59375 221.339844 172.648438 C 220.269531 172.699219 219.199219 172.726562 218.128906 172.726562 C 217.054688 172.726562 215.984375 172.699219 214.914062 172.648438 C 213.84375 172.59375 212.777344 172.515625 211.710938 172.410156 C 210.644531 172.304688 209.578125 172.175781 208.519531 172.015625 C 207.460938 171.859375 206.40625 171.675781 205.355469 171.46875 C 204.300781 171.257812 203.257812 171.023438 202.21875 170.761719 C 201.179688 170.503906 200.144531 170.214844 199.121094 169.90625 C 198.09375 169.59375 197.078125 169.257812 196.070312 168.894531 C 195.058594 168.535156 194.058594 168.148438 193.070312 167.738281 C 192.082031 167.328125 191.101562 166.894531 190.132812 166.4375 C 189.164062 165.976562 188.207031 165.496094 187.261719 164.988281 C 186.316406 164.484375 185.382812 163.957031 184.464844 163.40625 C 183.546875 162.855469 182.640625 162.28125 181.75 161.683594 C 180.859375 161.089844 179.984375 160.472656 179.121094 159.832031 C 178.261719 159.195312 177.417969 158.535156 176.589844 157.855469 C 175.761719 157.175781 174.949219 156.472656 174.15625 155.753906 C 173.363281 155.035156 172.585938 154.292969 171.828125 153.535156 C 171.070312 152.777344 170.332031 152 169.613281 151.207031 C 168.890625 150.414062 168.191406 149.601562 167.511719 148.773438 C 166.832031 147.941406 166.171875 147.097656 165.535156 146.238281 C 164.898438 145.375 164.28125 144.5 163.683594 143.605469 C 163.089844 142.714844 162.515625 141.808594 161.964844 140.890625 C 161.414062 139.972656 160.886719 139.039062 160.382812 138.09375 C 159.875 137.148438 159.394531 136.1875 158.9375 135.21875 C 158.476562 134.25 158.042969 133.269531 157.632812 132.28125 C 157.222656 131.289062 156.839844 130.289062 156.476562 129.28125 C 156.117188 128.269531 155.78125 127.253906 155.46875 126.226562 C 155.160156 125.199219 154.871094 124.167969 154.613281 123.125 C 154.351562 122.085938 154.117188 121.039062 153.90625 119.988281 C 153.699219 118.9375 153.515625 117.882812 153.359375 116.820312 C 153.203125 115.757812 153.070312 114.695312 152.964844 113.628906 C 152.859375 112.5625 152.78125 111.492188 152.730469 110.421875 C 152.675781 109.351562 152.648438 108.277344 152.648438 107.207031 C 152.648438 106.132812 152.675781 105.0625 152.730469 103.992188 C 152.78125 102.921875 152.859375 101.851562 152.964844 100.785156 C 153.070312 99.71875 153.203125 98.652344 153.359375 97.59375 C 153.515625 96.53125 153.699219 95.476562 153.90625 94.425781 C 154.117188 93.371094 154.351562 92.328125 154.613281 91.285156 C 154.871094 90.246094 155.160156 89.214844 155.46875 88.1875 C 155.78125 87.160156 156.117188 86.144531 156.476562 85.132812 C 156.839844 84.125 157.222656 83.125 157.632812 82.132812 C 158.042969 81.140625 158.476562 80.164062 158.9375 79.191406 C 159.394531 78.222656 159.875 77.265625 160.382812 76.320312 C 160.886719 75.375 161.414062 74.441406 161.964844 73.523438 C 162.515625 72.601562 163.089844 71.695312 163.683594 70.804688 C 164.28125 69.914062 164.898438 69.039062 165.535156 68.175781 C 166.171875 67.316406 166.832031 66.46875 167.511719 65.640625 C 168.191406 64.8125 168.890625 64 169.613281 63.207031 C 170.332031 62.410156 171.070312 61.636719 171.828125 60.875 C 172.585938 60.117188 173.363281 59.378906 174.15625 58.660156 C 174.949219 57.9375 175.761719 57.238281 176.589844 56.558594 C 177.417969 55.878906 178.261719 55.21875 179.121094 54.582031 C 179.984375 53.941406 180.859375 53.324219 181.75 52.730469 C 182.640625 52.132812 183.546875 51.558594 184.464844 51.007812 C 185.382812 50.457031 186.316406 49.929688 187.261719 49.421875 C 188.207031 48.917969 189.164062 48.433594 190.132812 47.976562 C 191.101562 47.519531 192.082031 47.085938 193.070312 46.675781 C 194.058594 46.261719 195.058594 45.878906 196.070312 45.515625 C 197.078125 45.15625 198.09375 44.820312 199.121094 44.507812 C 200.144531 44.195312 201.179688 43.910156 202.21875 43.648438 C 203.257812 43.390625 204.300781 43.15625 205.355469 42.945312 C 206.40625 42.734375 207.460938 42.554688 208.519531 42.394531 C 209.578125 42.238281 210.644531 42.105469 211.710938 42 C 212.777344 41.898438 213.84375 41.816406 214.914062 41.765625 C 215.984375 41.710938 217.054688 41.6875 218.128906 41.6875 C 219.199219 41.6875 220.269531 41.710938 221.339844 41.765625 C 222.410156 41.816406 223.480469 41.898438 224.546875 42 C 225.613281 42.105469 226.675781 42.238281 227.734375 42.394531 C 228.796875 42.554688 229.851562 42.734375 230.902344 42.945312 C 231.953125 43.15625 232.996094 43.390625 234.039062 43.648438 C 235.078125 43.910156 236.109375 44.195312 237.136719 44.507812 C 238.160156 44.820312 239.175781 45.15625 240.1875 45.515625 C 241.195312 45.878906 242.195312 46.261719 243.183594 46.675781 C 244.175781 47.085938 245.152344 47.519531 246.121094 47.976562 C 247.089844 48.433594 248.046875 48.917969 248.992188 49.421875 C 249.9375 49.929688 250.871094 50.457031 251.789062 51.007812 C 252.710938 51.558594 253.613281 52.132812 254.503906 52.730469 C 255.394531 53.324219 256.273438 53.941406 257.132812 54.582031 C 257.992188 55.21875 258.839844 55.878906 259.667969 56.558594 C 260.496094 57.238281 261.304688 57.9375 262.101562 58.660156 C 262.894531 59.378906 263.667969 60.117188 264.425781 60.875 C 265.183594 61.636719 265.925781 62.410156 266.644531 63.207031 C 267.363281 64 268.0625 64.8125 268.742188 65.640625 C 269.421875 66.46875 270.082031 67.316406 270.71875 68.175781 C 271.359375 69.039062 271.976562 69.914062 272.570312 70.804688 C 273.164062 71.695312 273.738281 72.601562 274.289062 73.523438 C 274.839844 74.441406 275.367188 75.375 275.875 76.320312 C 276.378906 77.265625 276.859375 78.222656 277.320312 79.191406 C 277.777344 80.164062 278.210938 81.140625 278.621094 82.132812 C 279.03125 83.125 279.417969 84.125 279.777344 85.132812 C 280.140625 86.144531 280.476562 87.160156 280.785156 88.1875 C 281.097656 89.214844 281.382812 90.246094 281.644531 91.285156 C 281.902344 92.328125 282.136719 93.371094 282.347656 94.425781 C 282.554688 95.476562 282.738281 96.53125 282.898438 97.59375 C 283.054688 98.652344 283.183594 99.71875 283.289062 100.785156 C 283.394531 101.851562 283.472656 102.921875 283.527344 103.992188 C 283.578125 105.0625 283.605469 106.132812 283.605469 107.207031 Z M 283.605469 107.207031 " fill-opacity="1" fill-rule="nonzero"/><path fill="#d82323" d="M 44.207031 179.816406 L 154.957031 276.496094 L 154.957031 217.296875 L 99.5625 162.03125 Z M 44.207031 179.816406 " fill-opacity="1" fill-rule="nonzero"/><path fill="#b50202" d="M 153.863281 217.296875 L 224.445312 162.03125 L 265.910156 152.019531 L 153.863281 276.496094 " fill-opacity="1" fill-rule="nonzero"/></g></g></g></svg>